<svg width="81" height="81" viewBox="0 0 81 81" fill="none" xmlns="http://www.w3.org/2000/svg">
<path fill-rule="evenodd" clip-rule="evenodd" d="M17.0711 2.92893C13.1658 -0.976311 6.83417 -0.976311 2.92893 2.92893C-0.976315 6.83417 -0.976307 13.1658 2.92894 17.0711L26.3578 40.5L3.07102 63.7868C-0.834222 67.692 -0.834222 74.0237 3.07102 77.9289C6.97626 81.8342 13.3079 81.8342 17.2132 77.9289L40.5 54.6421L63.3317 77.4739C67.237 81.3791 73.5686 81.3791 77.4739 77.4739C81.3791 73.5686 81.3791 67.237 77.4739 63.3317L54.6421 40.5L77.616 17.5261C81.5212 13.6209 81.5212 7.28924 77.616 3.38399C73.7107 -0.52125 67.3791 -0.521242 63.4738 3.384L40.5 26.3578L17.0711 2.92893Z" fill="white" fill-opacity="0.7"/>
</svg>
